<svg xmlns="http://www.w3.org/2000/svg" width="100" height="100" viewBox="0 0 100 100"><defs><linearGradient id="paper" x1="0" y1="0" x2=".25" y2="1"><stop offset="0" stop-color="#F4F8FF"/><stop offset="1" stop-color="#DDE8F8"/></linearGradient><linearGradient id="wood" x1="0" y1="0" x2=".25" y2="1"><stop offset="0" stop-color="#E6BD83"/><stop offset="1" stop-color="#B37E4C"/></linearGradient><linearGradient id="blue" x1="0" y1="0" x2=".25" y2="1"><stop offset="0" stop-color="#7BBFF3"/><stop offset="1" stop-color="#3974CD"/></linearGradient><linearGradient id="coral" x1="0" y1="0" x2=".25" y2="1"><stop offset="0" stop-color="#FFB79B"/><stop offset="1" stop-color="#D36663"/></linearGradient><linearGradient id="gold" x1="0" y1="0" x2=".25" y2="1"><stop offset="0" stop-color="#FFE3A0"/><stop offset="1" stop-color="#D69A4B"/></linearGradient><linearGradient id="mint" x1="0" y1="0" x2=".25" y2="1"><stop offset="0" stop-color="#AAE2C9"/><stop offset="1" stop-color="#58A891"/></linearGradient><linearGradient id="violet" x1="0" y1="0" x2=".25" y2="1"><stop offset="0" stop-color="#CBC0F6"/><stop offset="1" stop-color="#8574C2"/></linearGradient><linearGradient id="darkstone" x1="0" y1="0" x2=".25" y2="1"><stop offset="0" stop-color="#64748E"/><stop offset="1" stop-color="#1C2D46"/></linearGradient><linearGradient id="whitestone" x1="0" y1="0" x2=".25" y2="1"><stop offset="0" stop-color="#FFFDF3"/><stop offset="1" stop-color="#C5D6E5"/></linearGradient><linearGradient id="jade" x1="0" y1="0" x2=".25" y2="1"><stop offset="0" stop-color="#5B9B84"/><stop offset="1" stop-color="#367460"/></linearGradient><linearGradient id="night" x1="0" y1="0" x2=".25" y2="1"><stop offset="0" stop-color="#365983"/><stop offset="1" stop-color="#182C49"/></linearGradient><linearGradient id="glow" x1="0" y1="0" x2=".25" y2="1"><stop offset="0" stop-color="#FFF5CA"/><stop offset="1" stop-color="#F1C16D"/></linearGradient><linearGradient id="tile" x1="0" y1="0" x2=".25" y2="1"><stop offset="0" stop-color="#EBF4FF"/><stop offset="1" stop-color="#CCDDF2"/></linearGradient></defs><rect x="1" y="1" width="98" height="98" rx="6" fill="#F4F8FF" stroke="#A8BCD6" stroke-width="2"/><path d="M9 14H34" fill="none" stroke="#A8BCD6" stroke-width="2" opacity="0.6" stroke-linecap="round" stroke-linejoin="round"/></svg>
