<svg xmlns="http://www.w3.org/2000/svg" width="120" height="120" viewBox="0 0 120 120"><defs><linearGradient id="paper" x1="0" y1="0" x2=".25" y2="1"><stop stop-color="#FFFAF0"/><stop offset="1" stop-color="#DCE8F1"/></linearGradient><linearGradient id="blue" x1="0" y1="0" x2=".25" y2="1"><stop stop-color="#9AD2F7"/><stop offset="1" stop-color="#397ACB"/></linearGradient><linearGradient id="coral" x1="0" y1="0" x2=".25" y2="1"><stop stop-color="#FFC0A5"/><stop offset="1" stop-color="#CF645F"/></linearGradient><linearGradient id="gold" x1="0" y1="0" x2=".25" y2="1"><stop stop-color="#FFE7AD"/><stop offset="1" stop-color="#D7A04A"/></linearGradient><linearGradient id="mint" x1="0" y1="0" x2=".25" y2="1"><stop stop-color="#B7EACD"/><stop offset="1" stop-color="#4D9E85"/></linearGradient><linearGradient id="violet" x1="0" y1="0" x2=".25" y2="1"><stop stop-color="#DCD2FA"/><stop offset="1" stop-color="#8470C2"/></linearGradient><linearGradient id="cyan" x1="0" y1="0" x2=".25" y2="1"><stop stop-color="#B8EDF1"/><stop offset="1" stop-color="#4AA3BF"/></linearGradient><linearGradient id="wood" x1="0" y1="0" x2=".25" y2="1"><stop stop-color="#F0D1A2"/><stop offset="1" stop-color="#D5AC7C"/></linearGradient><linearGradient id="metal" x1="0" y1="0" x2=".25" y2="1"><stop stop-color="#DBEAF2"/><stop offset="1" stop-color="#6386A8"/></linearGradient><linearGradient id="ink" x1="0" y1="0" x2=".25" y2="1"><stop stop-color="#62788E"/><stop offset="1" stop-color="#20364F"/></linearGradient><linearGradient id="ivory" x1="0" y1="0" x2=".25" y2="1"><stop stop-color="#FFF8E7"/><stop offset="1" stop-color="#C9D8E6"/></linearGradient></defs><ellipse cx="60" cy="104" rx="43" ry="6" fill="#193D6C" opacity="0.16"/><g transform="translate(10 9) scale(1) rotate(0 50 50)"><g transform="translate(3 43) scale(1.05) rotate(0 50 50)"><path d="M10 0H30L40 15L20 40L0 15Z" fill="url(#blue)" stroke="#9CB7D0" stroke-width="2" stroke-linejoin="round"/><path d="M10 0L20 15L30 0L40 15H0Z" fill="#FFFFFF" stroke="none" stroke-width="2" stroke-linejoin="round"/><path d="M20 15V37" fill="none" stroke="#FFFFFF" stroke-width="2" stroke-linecap="round" stroke-linejoin="round" opacity="0.5"/></g><g transform="translate(32 12) scale(1.12) rotate(0 50 50)"><path d="M10 0H30L40 15L20 40L0 15Z" fill="url(#gold)" stroke="#9CB7D0" stroke-width="2" stroke-linejoin="round"/><path d="M10 0L20 15L30 0L40 15H0Z" fill="#FFFFFF" stroke="none" stroke-width="2" stroke-linejoin="round"/><path d="M20 15V37" fill="none" stroke="#FFFFFF" stroke-width="2" stroke-linecap="round" stroke-linejoin="round" opacity="0.5"/></g><g transform="translate(60 47) scale(0.95) rotate(0 50 50)"><path d="M10 0H30L40 15L20 40L0 15Z" fill="url(#coral)" stroke="#9CB7D0" stroke-width="2" stroke-linejoin="round"/><path d="M10 0L20 15L30 0L40 15H0Z" fill="#FFFFFF" stroke="none" stroke-width="2" stroke-linejoin="round"/><path d="M20 15V37" fill="none" stroke="#FFFFFF" stroke-width="2" stroke-linecap="round" stroke-linejoin="round" opacity="0.5"/></g></g></svg>
