<svg xmlns="http://www.w3.org/2000/svg" width="120" height="120" viewBox="0 0 120 120"><defs><linearGradient id="paper" x1="0" y1="0" x2=".25" y2="1"><stop stop-color="#FFFAF0"/><stop offset="1" stop-color="#DCE8F1"/></linearGradient><linearGradient id="blue" x1="0" y1="0" x2=".25" y2="1"><stop stop-color="#9AD2F7"/><stop offset="1" stop-color="#397ACB"/></linearGradient><linearGradient id="coral" x1="0" y1="0" x2=".25" y2="1"><stop stop-color="#FFC0A5"/><stop offset="1" stop-color="#CF645F"/></linearGradient><linearGradient id="gold" x1="0" y1="0" x2=".25" y2="1"><stop stop-color="#FFE7AD"/><stop offset="1" stop-color="#D7A04A"/></linearGradient><linearGradient id="mint" x1="0" y1="0" x2=".25" y2="1"><stop stop-color="#B7EACD"/><stop offset="1" stop-color="#4D9E85"/></linearGradient><linearGradient id="violet" x1="0" y1="0" x2=".25" y2="1"><stop stop-color="#DCD2FA"/><stop offset="1" stop-color="#8470C2"/></linearGradient><linearGradient id="cyan" x1="0" y1="0" x2=".25" y2="1"><stop stop-color="#B8EDF1"/><stop offset="1" stop-color="#4AA3BF"/></linearGradient><linearGradient id="wood" x1="0" y1="0" x2=".25" y2="1"><stop stop-color="#F0D1A2"/><stop offset="1" stop-color="#D5AC7C"/></linearGradient><linearGradient id="metal" x1="0" y1="0" x2=".25" y2="1"><stop stop-color="#DBEAF2"/><stop offset="1" stop-color="#6386A8"/></linearGradient><linearGradient id="ink" x1="0" y1="0" x2=".25" y2="1"><stop stop-color="#62788E"/><stop offset="1" stop-color="#20364F"/></linearGradient><linearGradient id="ivory" x1="0" y1="0" x2=".25" y2="1"><stop stop-color="#FFF8E7"/><stop offset="1" stop-color="#C9D8E6"/></linearGradient></defs><ellipse cx="60" cy="104" rx="43" ry="6" fill="#193D6C" opacity="0.16"/><g transform="translate(10 9) scale(1) rotate(0 50 50)"><rect x="19" y="11" width="65" height="80" rx="8" fill="#9CB7D0" stroke="none" stroke-width="2"/><rect x="19" y="8" width="65" height="80" rx="8" fill="url(#paper)" stroke="#9CB7D0" stroke-width="2"/><path d="M26 13H77" fill="none" stroke="#FFFFFF" stroke-width="2" stroke-linecap="round" stroke-linejoin="round" opacity="0.5"/><path d="M32 13V81" fill="none" stroke="#438ADF" stroke-width="2" stroke-linecap="round" stroke-linejoin="round" opacity="1"/><path d="M14 24H24" fill="none" stroke="#304A69" stroke-width="4" stroke-linecap="round" stroke-linejoin="round" opacity="1"/><path d="M14 42H24" fill="none" stroke="#304A69" stroke-width="4" stroke-linecap="round" stroke-linejoin="round" opacity="1"/><path d="M14 60H24" fill="none" stroke="#304A69" stroke-width="4" stroke-linecap="round" stroke-linejoin="round" opacity="1"/><path d="M14 78H24" fill="none" stroke="#304A69" stroke-width="4" stroke-linecap="round" stroke-linejoin="round" opacity="1"/><g transform="translate(39 24) scale(0.85) rotate(0 50 50)"><path d="M0 0L14 14M14 0L0 14" fill="none" stroke="#397ACB" stroke-width="7" stroke-linecap="round" stroke-linejoin="round" opacity="1"/><path d="M0 -2L14 12M14 -2L0 12" fill="none" stroke="#9AD2F7" stroke-width="5" stroke-linecap="round" stroke-linejoin="round" opacity="1"/></g><circle cx="69" cy="32" r="8" fill="none" stroke="#CF645F" stroke-width="5"/><circle cx="69" cy="30" r="8" fill="none" stroke="#FFC0A5" stroke-width="4"/><path d="M39 64H55M47 56V72" fill="none" stroke="#438ADF" stroke-width="5" stroke-linecap="round" stroke-linejoin="round" opacity="1"/><path d="M64 60H77M64 69H77" fill="none" stroke="#EB857C" stroke-width="4" stroke-linecap="round" stroke-linejoin="round" opacity="1"/></g></svg>
