<svg xmlns="http://www.w3.org/2000/svg" width="256" height="256" viewBox="0 0 256 256"><defs><linearGradient id="paper" x1="0" y1="0" x2=".25" y2="1"><stop offset="0" stop-color="#F4F8FF"/><stop offset="1" stop-color="#DDE8F8"/></linearGradient><linearGradient id="wood" x1="0" y1="0" x2=".25" y2="1"><stop offset="0" stop-color="#E6BD83"/><stop offset="1" stop-color="#B37E4C"/></linearGradient><linearGradient id="blue" x1="0" y1="0" x2=".25" y2="1"><stop offset="0" stop-color="#7BBFF3"/><stop offset="1" stop-color="#3974CD"/></linearGradient><linearGradient id="coral" x1="0" y1="0" x2=".25" y2="1"><stop offset="0" stop-color="#FFB79B"/><stop offset="1" stop-color="#D36663"/></linearGradient><linearGradient id="gold" x1="0" y1="0" x2=".25" y2="1"><stop offset="0" stop-color="#FFE3A0"/><stop offset="1" stop-color="#D69A4B"/></linearGradient><linearGradient id="mint" x1="0" y1="0" x2=".25" y2="1"><stop offset="0" stop-color="#AAE2C9"/><stop offset="1" stop-color="#58A891"/></linearGradient><linearGradient id="violet" x1="0" y1="0" x2=".25" y2="1"><stop offset="0" stop-color="#CBC0F6"/><stop offset="1" stop-color="#8574C2"/></linearGradient><linearGradient id="darkstone" x1="0" y1="0" x2=".25" y2="1"><stop offset="0" stop-color="#64748E"/><stop offset="1" stop-color="#1C2D46"/></linearGradient><linearGradient id="whitestone" x1="0" y1="0" x2=".25" y2="1"><stop offset="0" stop-color="#FFFDF3"/><stop offset="1" stop-color="#C5D6E5"/></linearGradient><linearGradient id="jade" x1="0" y1="0" x2=".25" y2="1"><stop offset="0" stop-color="#5B9B84"/><stop offset="1" stop-color="#367460"/></linearGradient><linearGradient id="night" x1="0" y1="0" x2=".25" y2="1"><stop offset="0" stop-color="#365983"/><stop offset="1" stop-color="#182C49"/></linearGradient><linearGradient id="glow" x1="0" y1="0" x2=".25" y2="1"><stop offset="0" stop-color="#FFF5CA"/><stop offset="1" stop-color="#F1C16D"/></linearGradient><linearGradient id="tile" x1="0" y1="0" x2=".25" y2="1"><stop offset="0" stop-color="#EBF4FF"/><stop offset="1" stop-color="#CCDDF2"/></linearGradient></defs><ellipse cx="128" cy="227" rx="99" ry="14" fill="#183251" opacity="0.18"/><g transform="translate(19 16) scale(1) rotate(0)"><rect x="3" y="8" width="212" height="200" rx="24" fill="#8C5D3B" stroke="none" stroke-width="2"/><rect x="3" y="2" width="212" height="200" rx="24" fill="url(#wood)" stroke="#8C5D3B" stroke-width="2"/><path d="M29 10H188" fill="none" stroke="#FFFFFF" stroke-width="3" opacity="0.45" stroke-linecap="round" stroke-linejoin="round"/></g><g transform="translate(35 24) scale(0.6) rotate(0)"><ellipse cx="50" cy="82" rx="32" ry="9" fill="#32251F" opacity="0.25"/><rect x="28" y="43" width="44" height="34" rx="17" fill="url(#gold)" stroke="#9E6C42" stroke-width="2"/><ellipse cx="50" cy="43" rx="24" ry="17" fill="#EDC788" opacity="1"/><ellipse cx="43" cy="37" rx="12" ry="5" fill="#FFF2CD" opacity="0.7"/><path d="M28 48V60" fill="none" stroke="#FFF0C3" stroke-width="2" opacity="0.5" stroke-linecap="round" stroke-linejoin="round"/></g><g transform="translate(98 24) scale(0.6) rotate(0)"><ellipse cx="50" cy="82" rx="32" ry="9" fill="#32251F" opacity="0.25"/><rect x="28" y="43" width="44" height="34" rx="17" fill="url(#gold)" stroke="#9E6C42" stroke-width="2"/><ellipse cx="50" cy="43" rx="24" ry="17" fill="#EDC788" opacity="1"/><ellipse cx="43" cy="37" rx="12" ry="5" fill="#FFF2CD" opacity="0.7"/><path d="M28 48V60" fill="none" stroke="#FFF0C3" stroke-width="2" opacity="0.5" stroke-linecap="round" stroke-linejoin="round"/></g><g transform="translate(161 24) scale(0.6) rotate(0)"><ellipse cx="50" cy="82" rx="32" ry="9" fill="#32251F" opacity="0.25"/><rect x="28" y="43" width="44" height="34" rx="17" fill="url(#gold)" stroke="#9E6C42" stroke-width="2"/><ellipse cx="50" cy="43" rx="24" ry="17" fill="#EDC788" opacity="1"/><ellipse cx="43" cy="37" rx="12" ry="5" fill="#FFF2CD" opacity="0.7"/><path d="M28 48V60" fill="none" stroke="#FFF0C3" stroke-width="2" opacity="0.5" stroke-linecap="round" stroke-linejoin="round"/></g><g transform="translate(35 87) scale(0.6) rotate(0)"><ellipse cx="50" cy="82" rx="32" ry="9" fill="#32251F" opacity="0.25"/><rect x="28" y="43" width="44" height="34" rx="17" fill="url(#gold)" stroke="#9E6C42" stroke-width="2"/><ellipse cx="50" cy="43" rx="24" ry="17" fill="#EDC788" opacity="1"/><ellipse cx="43" cy="37" rx="12" ry="5" fill="#FFF2CD" opacity="0.7"/><path d="M28 48V60" fill="none" stroke="#FFF0C3" stroke-width="2" opacity="0.5" stroke-linecap="round" stroke-linejoin="round"/></g><g transform="translate(98 87) scale(0.6) rotate(0)"><ellipse cx="50" cy="54" rx="37" ry="32" fill="#B88B58" opacity="1"/><ellipse cx="50" cy="51" rx="32" ry="27" fill="#514D41" opacity="1"/><path d="M20 60Q47 91 80 60" fill="none" stroke="#F2CD91" stroke-width="3" opacity="0.6" stroke-linecap="round" stroke-linejoin="round"/></g><g transform="translate(161 87) scale(0.6) rotate(0)"><ellipse cx="50" cy="82" rx="32" ry="9" fill="#32251F" opacity="0.25"/><rect x="28" y="43" width="44" height="34" rx="17" fill="url(#gold)" stroke="#9E6C42" stroke-width="2"/><ellipse cx="50" cy="43" rx="24" ry="17" fill="#EDC788" opacity="1"/><ellipse cx="43" cy="37" rx="12" ry="5" fill="#FFF2CD" opacity="0.7"/><path d="M28 48V60" fill="none" stroke="#FFF0C3" stroke-width="2" opacity="0.5" stroke-linecap="round" stroke-linejoin="round"/></g><g transform="translate(35 150) scale(0.6) rotate(0)"><ellipse cx="50" cy="82" rx="32" ry="9" fill="#32251F" opacity="0.25"/><rect x="28" y="43" width="44" height="34" rx="17" fill="url(#gold)" stroke="#9E6C42" stroke-width="2"/><ellipse cx="50" cy="43" rx="24" ry="17" fill="#EDC788" opacity="1"/><ellipse cx="43" cy="37" rx="12" ry="5" fill="#FFF2CD" opacity="0.7"/><path d="M28 48V60" fill="none" stroke="#FFF0C3" stroke-width="2" opacity="0.5" stroke-linecap="round" stroke-linejoin="round"/></g><g transform="translate(98 150) scale(0.6) rotate(0)"><ellipse cx="50" cy="82" rx="32" ry="9" fill="#32251F" opacity="0.25"/><rect x="28" y="43" width="44" height="34" rx="17" fill="url(#gold)" stroke="#9E6C42" stroke-width="2"/><ellipse cx="50" cy="43" rx="24" ry="17" fill="#EDC788" opacity="1"/><ellipse cx="43" cy="37" rx="12" ry="5" fill="#FFF2CD" opacity="0.7"/><path d="M28 48V60" fill="none" stroke="#FFF0C3" stroke-width="2" opacity="0.5" stroke-linecap="round" stroke-linejoin="round"/></g><g transform="translate(161 150) scale(0.6) rotate(0)"><ellipse cx="50" cy="82" rx="32" ry="9" fill="#32251F" opacity="0.25"/><rect x="28" y="43" width="44" height="34" rx="17" fill="url(#gold)" stroke="#9E6C42" stroke-width="2"/><ellipse cx="50" cy="43" rx="24" ry="17" fill="#EDC788" opacity="1"/><ellipse cx="43" cy="37" rx="12" ry="5" fill="#FFF2CD" opacity="0.7"/><path d="M28 48V60" fill="none" stroke="#FFF0C3" stroke-width="2" opacity="0.5" stroke-linecap="round" stroke-linejoin="round"/></g></svg>
