<svg xmlns="http://www.w3.org/2000/svg" width="100" height="100" viewBox="0 0 100 100"><defs><linearGradient id="paper" x2="0" y2="1"><stop stop-color="#30445F"/><stop offset="1" stop-color="#1C2B42"/></linearGradient><linearGradient id="blue" x2="0" y2="1"><stop stop-color="#9AD2F7"/><stop offset="1" stop-color="#397ACB"/></linearGradient><linearGradient id="coral" x2="0" y2="1"><stop stop-color="#FFC0A5"/><stop offset="1" stop-color="#CF645F"/></linearGradient><linearGradient id="gold" x2="0" y2="1"><stop stop-color="#FFE7AD"/><stop offset="1" stop-color="#D7A04A"/></linearGradient><linearGradient id="mint" x2="0" y2="1"><stop stop-color="#B7EACD"/><stop offset="1" stop-color="#4D9E85"/></linearGradient><linearGradient id="violet" x2="0" y2="1"><stop stop-color="#DCD2FA"/><stop offset="1" stop-color="#8470C2"/></linearGradient><linearGradient id="cyan" x2="0" y2="1"><stop stop-color="#B8EDF1"/><stop offset="1" stop-color="#4AA3BF"/></linearGradient><linearGradient id="wood" x2="0" y2="1"><stop stop-color="#9F7754"/><stop offset="1" stop-color="#6C4F3C"/></linearGradient><linearGradient id="metal" x2="0" y2="1"><stop stop-color="#DBEAF2"/><stop offset="1" stop-color="#6386A8"/></linearGradient><linearGradient id="ink" x2="0" y2="1"><stop stop-color="#62788E"/><stop offset="1" stop-color="#20364F"/></linearGradient><linearGradient id="ivory" x2="0" y2="1"><stop stop-color="#FFF8E7"/><stop offset="1" stop-color="#C9D8E6"/></linearGradient></defs><ellipse cx="50" cy="87" rx="32" ry="6" fill="#122B45" opacity="0.16"/><rect x="21" y="28" width="58" height="51" rx="17" fill="url(#blue)" stroke="#DAE8FF" stroke-width="2"/><rect x="29" y="39" width="42" height="24" rx="9" fill="#244965" stroke="none" stroke-width="1"/><circle cx="40" cy="50" r="5" fill="#BBFFFF" stroke="none" stroke-width="1"/><circle cx="60" cy="50" r="5" fill="#BBFFFF" stroke="none" stroke-width="1"/><path d="M50 28V18" fill="none" stroke="#DAE8FF" stroke-width="3" stroke-linecap="round" stroke-linejoin="round" opacity="1"/><circle cx="50" cy="13" r="7" fill="#EABB63" stroke="none" stroke-width="1"/><rect x="15" y="70" width="16" height="18" rx="6" fill="url(#metal)" stroke="none" stroke-width="1"/><rect x="69" y="70" width="16" height="18" rx="6" fill="url(#metal)" stroke="none" stroke-width="1"/></svg>
