<svg xmlns="http://www.w3.org/2000/svg" width="120" height="120" viewBox="0 0 120 120"><defs><linearGradient id="paper" x1="0" y1="0" x2=".25" y2="1"><stop stop-color="#30445F"/><stop offset="1" stop-color="#1C2B42"/></linearGradient><linearGradient id="blue" x1="0" y1="0" x2=".25" y2="1"><stop stop-color="#9AD2F7"/><stop offset="1" stop-color="#397ACB"/></linearGradient><linearGradient id="coral" x1="0" y1="0" x2=".25" y2="1"><stop stop-color="#FFC0A5"/><stop offset="1" stop-color="#CF645F"/></linearGradient><linearGradient id="gold" x1="0" y1="0" x2=".25" y2="1"><stop stop-color="#FFE7AD"/><stop offset="1" stop-color="#D7A04A"/></linearGradient><linearGradient id="mint" x1="0" y1="0" x2=".25" y2="1"><stop stop-color="#B7EACD"/><stop offset="1" stop-color="#4D9E85"/></linearGradient><linearGradient id="violet" x1="0" y1="0" x2=".25" y2="1"><stop stop-color="#DCD2FA"/><stop offset="1" stop-color="#8470C2"/></linearGradient><linearGradient id="cyan" x1="0" y1="0" x2=".25" y2="1"><stop stop-color="#B8EDF1"/><stop offset="1" stop-color="#4AA3BF"/></linearGradient><linearGradient id="wood" x1="0" y1="0" x2=".25" y2="1"><stop stop-color="#9F7754"/><stop offset="1" stop-color="#6C4F3C"/></linearGradient><linearGradient id="metal" x1="0" y1="0" x2=".25" y2="1"><stop stop-color="#DBEAF2"/><stop offset="1" stop-color="#6386A8"/></linearGradient><linearGradient id="ink" x1="0" y1="0" x2=".25" y2="1"><stop stop-color="#62788E"/><stop offset="1" stop-color="#20364F"/></linearGradient><linearGradient id="ivory" x1="0" y1="0" x2=".25" y2="1"><stop stop-color="#FFF8E7"/><stop offset="1" stop-color="#C9D8E6"/></linearGradient></defs><ellipse cx="60" cy="104" rx="43" ry="6" fill="#050F21" opacity="0.28"/><g transform="translate(10 9) scale(1) rotate(0 50 50)"><rect x="8" y="11" width="84" height="82" rx="11" fill="#516884" stroke="none" stroke-width="2"/><rect x="8" y="8" width="84" height="82" rx="11" fill="url(#wood)" stroke="#516884" stroke-width="2"/><path d="M15 13H85" fill="none" stroke="#FFFFFF" stroke-width="2" stroke-linecap="round" stroke-linejoin="round" opacity="0.5"/><rect x="14" y="17" width="19" height="45" rx="4" fill="#516884" stroke="none" stroke-width="2"/><rect x="14" y="14" width="19" height="45" rx="4" fill="url(#gold)" stroke="#516884" stroke-width="2"/><path d="M21 19H26" fill="none" stroke="#FFFFFF" stroke-width="2" stroke-linecap="round" stroke-linejoin="round" opacity="0.5"/><rect x="37" y="17" width="27" height="43" rx="4" fill="#516884" stroke="none" stroke-width="2"/><rect x="37" y="14" width="27" height="43" rx="4" fill="url(#coral)" stroke="#516884" stroke-width="2"/><path d="M44 19H57" fill="none" stroke="#FFFFFF" stroke-width="2" stroke-linecap="round" stroke-linejoin="round" opacity="0.5"/><rect x="68" y="17" width="18" height="45" rx="4" fill="#516884" stroke="none" stroke-width="2"/><rect x="68" y="14" width="18" height="45" rx="4" fill="url(#gold)" stroke="#516884" stroke-width="2"/><path d="M75 19H79" fill="none" stroke="#FFFFFF" stroke-width="2" stroke-linecap="round" stroke-linejoin="round" opacity="0.5"/><rect x="14" y="66" width="31" height="22" rx="4" fill="#516884" stroke="none" stroke-width="2"/><rect x="14" y="63" width="31" height="22" rx="4" fill="url(#wood)" stroke="#516884" stroke-width="2"/><path d="M21 68H38" fill="none" stroke="#FFFFFF" stroke-width="2" stroke-linecap="round" stroke-linejoin="round" opacity="0.5"/><rect x="49" y="66" width="37" height="22" rx="4" fill="#516884" stroke="none" stroke-width="2"/><rect x="49" y="63" width="37" height="22" rx="4" fill="url(#wood)" stroke="#516884" stroke-width="2"/><path d="M56 68H79" fill="none" stroke="#FFFFFF" stroke-width="2" stroke-linecap="round" stroke-linejoin="round" opacity="0.5"/><path d="M45 34H56M50 29V43" fill="none" stroke="#FFF1C5" stroke-width="3" stroke-linecap="round" stroke-linejoin="round" opacity="1"/></g></svg>
