<svg xmlns="http://www.w3.org/2000/svg" width="120" height="120" viewBox="0 0 120 120"><defs><linearGradient id="paper" x1="0" y1="0" x2=".25" y2="1"><stop stop-color="#30445F"/><stop offset="1" stop-color="#1C2B42"/></linearGradient><linearGradient id="blue" x1="0" y1="0" x2=".25" y2="1"><stop stop-color="#9AD2F7"/><stop offset="1" stop-color="#397ACB"/></linearGradient><linearGradient id="coral" x1="0" y1="0" x2=".25" y2="1"><stop stop-color="#FFC0A5"/><stop offset="1" stop-color="#CF645F"/></linearGradient><linearGradient id="gold" x1="0" y1="0" x2=".25" y2="1"><stop stop-color="#FFE7AD"/><stop offset="1" stop-color="#D7A04A"/></linearGradient><linearGradient id="mint" x1="0" y1="0" x2=".25" y2="1"><stop stop-color="#B7EACD"/><stop offset="1" stop-color="#4D9E85"/></linearGradient><linearGradient id="violet" x1="0" y1="0" x2=".25" y2="1"><stop stop-color="#DCD2FA"/><stop offset="1" stop-color="#8470C2"/></linearGradient><linearGradient id="cyan" x1="0" y1="0" x2=".25" y2="1"><stop stop-color="#B8EDF1"/><stop offset="1" stop-color="#4AA3BF"/></linearGradient><linearGradient id="wood" x1="0" y1="0" x2=".25" y2="1"><stop stop-color="#9F7754"/><stop offset="1" stop-color="#6C4F3C"/></linearGradient><linearGradient id="metal" x1="0" y1="0" x2=".25" y2="1"><stop stop-color="#DBEAF2"/><stop offset="1" stop-color="#6386A8"/></linearGradient><linearGradient id="ink" x1="0" y1="0" x2=".25" y2="1"><stop stop-color="#62788E"/><stop offset="1" stop-color="#20364F"/></linearGradient><linearGradient id="ivory" x1="0" y1="0" x2=".25" y2="1"><stop stop-color="#FFF8E7"/><stop offset="1" stop-color="#C9D8E6"/></linearGradient></defs><ellipse cx="60" cy="104" rx="43" ry="6" fill="#050F21" opacity="0.28"/><g transform="translate(10 9) scale(1) rotate(0 50 50)"><circle cx="50" cy="50" r="43" fill="url(#coral)" stroke="#DAE8FF" stroke-width="2"/><path d="M7 50H93M50 7V93M22 18Q76 48 22 82M78 18Q24 48 78 82" fill="none" stroke="#DAE8FF" stroke-width="3" stroke-linecap="round" stroke-linejoin="round" opacity="1"/></g></svg>
