<svg xmlns="http://www.w3.org/2000/svg" width="256" height="256" viewBox="0 0 256 256"><defs><linearGradient id="paper" x1="0" y1="0" x2=".25" y2="1"><stop offset="0" stop-color="#253751"/><stop offset="1" stop-color="#1B2C43"/></linearGradient><linearGradient id="wood" x1="0" y1="0" x2=".25" y2="1"><stop offset="0" stop-color="#96704E"/><stop offset="1" stop-color="#674D39"/></linearGradient><linearGradient id="blue" x1="0" y1="0" x2=".25" y2="1"><stop offset="0" stop-color="#7BBFF3"/><stop offset="1" stop-color="#3974CD"/></linearGradient><linearGradient id="coral" x1="0" y1="0" x2=".25" y2="1"><stop offset="0" stop-color="#FFB79B"/><stop offset="1" stop-color="#D36663"/></linearGradient><linearGradient id="gold" x1="0" y1="0" x2=".25" y2="1"><stop offset="0" stop-color="#FFE3A0"/><stop offset="1" stop-color="#D69A4B"/></linearGradient><linearGradient id="mint" x1="0" y1="0" x2=".25" y2="1"><stop offset="0" stop-color="#AAE2C9"/><stop offset="1" stop-color="#58A891"/></linearGradient><linearGradient id="violet" x1="0" y1="0" x2=".25" y2="1"><stop offset="0" stop-color="#CBC0F6"/><stop offset="1" stop-color="#8574C2"/></linearGradient><linearGradient id="darkstone" x1="0" y1="0" x2=".25" y2="1"><stop offset="0" stop-color="#64748E"/><stop offset="1" stop-color="#1C2D46"/></linearGradient><linearGradient id="whitestone" x1="0" y1="0" x2=".25" y2="1"><stop offset="0" stop-color="#FFFDF3"/><stop offset="1" stop-color="#C5D6E5"/></linearGradient><linearGradient id="jade" x1="0" y1="0" x2=".25" y2="1"><stop offset="0" stop-color="#285D58"/><stop offset="1" stop-color="#1B3D41"/></linearGradient><linearGradient id="night" x1="0" y1="0" x2=".25" y2="1"><stop offset="0" stop-color="#365983"/><stop offset="1" stop-color="#182C49"/></linearGradient><linearGradient id="glow" x1="0" y1="0" x2=".25" y2="1"><stop offset="0" stop-color="#FFF5CA"/><stop offset="1" stop-color="#F1C16D"/></linearGradient><linearGradient id="tile" x1="0" y1="0" x2=".25" y2="1"><stop offset="0" stop-color="#304D70"/><stop offset="1" stop-color="#1D314B"/></linearGradient></defs><ellipse cx="128" cy="227" rx="99" ry="14" fill="#183251" opacity="0.18"/><g transform="translate(19 16) scale(1) rotate(0)"><rect x="3" y="8" width="212" height="200" rx="24" fill="#54718E" stroke="none" stroke-width="2"/><rect x="3" y="2" width="212" height="200" rx="24" fill="url(#night)" stroke="#54718E" stroke-width="2"/><path d="M29 10H188" fill="none" stroke="#FFFFFF" stroke-width="3" opacity="0.45" stroke-linecap="round" stroke-linejoin="round"/></g><g transform="translate(35 28) scale(0.6) rotate(0)"><rect x="3" y="8" width="94" height="90" rx="18" fill="#172D48" stroke="none" stroke-width="2"/><rect x="3" y="2" width="94" height="90" rx="18" fill="url(#night)" stroke="#172D48" stroke-width="2"/><path d="M23 10H76" fill="none" stroke="#FFFFFF" stroke-width="3" opacity="0.45" stroke-linecap="round" stroke-linejoin="round"/><circle cx="50" cy="46" r="25" fill="#36536F" stroke="#6B89A4" stroke-width="2"/><path d="M38 39Q50 27 62 39M40 61H60M44 67H56" fill="none" stroke="#7E9DB6" stroke-width="4" opacity="1" stroke-linecap="round" stroke-linejoin="round"/><circle cx="50" cy="46" r="11" fill="#27455F" stroke="none" stroke-width="2"/></g><g transform="translate(98 28) scale(0.6) rotate(0)"><rect x="3" y="8" width="94" height="90" rx="18" fill="#AD8450" stroke="none" stroke-width="2"/><rect x="3" y="2" width="94" height="90" rx="18" fill="url(#glow)" stroke="#AD8450" stroke-width="2"/><path d="M23 10H76" fill="none" stroke="#FFFFFF" stroke-width="3" opacity="0.45" stroke-linecap="round" stroke-linejoin="round"/><circle cx="50" cy="46" r="25" fill="#FFF1B3" stroke="#E3AB58" stroke-width="2"/><path d="M38 39Q50 27 62 39M40 61H60M44 67H56" fill="none" stroke="#C98B3E" stroke-width="4" opacity="1" stroke-linecap="round" stroke-linejoin="round"/><circle cx="50" cy="46" r="11" fill="#FFFDE6" stroke="none" stroke-width="2"/></g><g transform="translate(161 28) scale(0.6) rotate(0)"><rect x="3" y="8" width="94" height="90" rx="18" fill="#172D48" stroke="none" stroke-width="2"/><rect x="3" y="2" width="94" height="90" rx="18" fill="url(#night)" stroke="#172D48" stroke-width="2"/><path d="M23 10H76" fill="none" stroke="#FFFFFF" stroke-width="3" opacity="0.45" stroke-linecap="round" stroke-linejoin="round"/><circle cx="50" cy="46" r="25" fill="#36536F" stroke="#6B89A4" stroke-width="2"/><path d="M38 39Q50 27 62 39M40 61H60M44 67H56" fill="none" stroke="#7E9DB6" stroke-width="4" opacity="1" stroke-linecap="round" stroke-linejoin="round"/><circle cx="50" cy="46" r="11" fill="#27455F" stroke="none" stroke-width="2"/></g><g transform="translate(35 91) scale(0.6) rotate(0)"><rect x="3" y="8" width="94" height="90" rx="18" fill="#AD8450" stroke="none" stroke-width="2"/><rect x="3" y="2" width="94" height="90" rx="18" fill="url(#glow)" stroke="#AD8450" stroke-width="2"/><path d="M23 10H76" fill="none" stroke="#FFFFFF" stroke-width="3" opacity="0.45" stroke-linecap="round" stroke-linejoin="round"/><circle cx="50" cy="46" r="25" fill="#FFF1B3" stroke="#E3AB58" stroke-width="2"/><path d="M38 39Q50 27 62 39M40 61H60M44 67H56" fill="none" stroke="#C98B3E" stroke-width="4" opacity="1" stroke-linecap="round" stroke-linejoin="round"/><circle cx="50" cy="46" r="11" fill="#FFFDE6" stroke="none" stroke-width="2"/></g><g transform="translate(98 91) scale(0.6) rotate(0)"><rect x="3" y="8" width="94" height="90" rx="18" fill="#AD8450" stroke="none" stroke-width="2"/><rect x="3" y="2" width="94" height="90" rx="18" fill="url(#glow)" stroke="#AD8450" stroke-width="2"/><path d="M23 10H76" fill="none" stroke="#FFFFFF" stroke-width="3" opacity="0.45" stroke-linecap="round" stroke-linejoin="round"/><circle cx="50" cy="46" r="25" fill="#FFF1B3" stroke="#E3AB58" stroke-width="2"/><path d="M38 39Q50 27 62 39M40 61H60M44 67H56" fill="none" stroke="#C98B3E" stroke-width="4" opacity="1" stroke-linecap="round" stroke-linejoin="round"/><circle cx="50" cy="46" r="11" fill="#FFFDE6" stroke="none" stroke-width="2"/></g><g transform="translate(161 91) scale(0.6) rotate(0)"><rect x="3" y="8" width="94" height="90" rx="18" fill="#AD8450" stroke="none" stroke-width="2"/><rect x="3" y="2" width="94" height="90" rx="18" fill="url(#glow)" stroke="#AD8450" stroke-width="2"/><path d="M23 10H76" fill="none" stroke="#FFFFFF" stroke-width="3" opacity="0.45" stroke-linecap="round" stroke-linejoin="round"/><circle cx="50" cy="46" r="25" fill="#FFF1B3" stroke="#E3AB58" stroke-width="2"/><path d="M38 39Q50 27 62 39M40 61H60M44 67H56" fill="none" stroke="#C98B3E" stroke-width="4" opacity="1" stroke-linecap="round" stroke-linejoin="round"/><circle cx="50" cy="46" r="11" fill="#FFFDE6" stroke="none" stroke-width="2"/></g><g transform="translate(35 154) scale(0.6) rotate(0)"><rect x="3" y="8" width="94" height="90" rx="18" fill="#172D48" stroke="none" stroke-width="2"/><rect x="3" y="2" width="94" height="90" rx="18" fill="url(#night)" stroke="#172D48" stroke-width="2"/><path d="M23 10H76" fill="none" stroke="#FFFFFF" stroke-width="3" opacity="0.45" stroke-linecap="round" stroke-linejoin="round"/><circle cx="50" cy="46" r="25" fill="#36536F" stroke="#6B89A4" stroke-width="2"/><path d="M38 39Q50 27 62 39M40 61H60M44 67H56" fill="none" stroke="#7E9DB6" stroke-width="4" opacity="1" stroke-linecap="round" stroke-linejoin="round"/><circle cx="50" cy="46" r="11" fill="#27455F" stroke="none" stroke-width="2"/></g><g transform="translate(98 154) scale(0.6) rotate(0)"><rect x="3" y="8" width="94" height="90" rx="18" fill="#AD8450" stroke="none" stroke-width="2"/><rect x="3" y="2" width="94" height="90" rx="18" fill="url(#glow)" stroke="#AD8450" stroke-width="2"/><path d="M23 10H76" fill="none" stroke="#FFFFFF" stroke-width="3" opacity="0.45" stroke-linecap="round" stroke-linejoin="round"/><circle cx="50" cy="46" r="25" fill="#FFF1B3" stroke="#E3AB58" stroke-width="2"/><path d="M38 39Q50 27 62 39M40 61H60M44 67H56" fill="none" stroke="#C98B3E" stroke-width="4" opacity="1" stroke-linecap="round" stroke-linejoin="round"/><circle cx="50" cy="46" r="11" fill="#FFFDE6" stroke="none" stroke-width="2"/></g><g transform="translate(161 154) scale(0.6) rotate(0)"><rect x="3" y="8" width="94" height="90" rx="18" fill="#172D48" stroke="none" stroke-width="2"/><rect x="3" y="2" width="94" height="90" rx="18" fill="url(#night)" stroke="#172D48" stroke-width="2"/><path d="M23 10H76" fill="none" stroke="#FFFFFF" stroke-width="3" opacity="0.45" stroke-linecap="round" stroke-linejoin="round"/><circle cx="50" cy="46" r="25" fill="#36536F" stroke="#6B89A4" stroke-width="2"/><path d="M38 39Q50 27 62 39M40 61H60M44 67H56" fill="none" stroke="#7E9DB6" stroke-width="4" opacity="1" stroke-linecap="round" stroke-linejoin="round"/><circle cx="50" cy="46" r="11" fill="#27455F" stroke="none" stroke-width="2"/></g></svg>
