<svg xmlns="http://www.w3.org/2000/svg" width="120" height="120" viewBox="0 0 120 120"><defs><linearGradient id="paper" x1="0" y1="0" x2=".25" y2="1"><stop stop-color="#30445F"/><stop offset="1" stop-color="#1C2B42"/></linearGradient><linearGradient id="blue" x1="0" y1="0" x2=".25" y2="1"><stop stop-color="#9AD2F7"/><stop offset="1" stop-color="#397ACB"/></linearGradient><linearGradient id="coral" x1="0" y1="0" x2=".25" y2="1"><stop stop-color="#FFC0A5"/><stop offset="1" stop-color="#CF645F"/></linearGradient><linearGradient id="gold" x1="0" y1="0" x2=".25" y2="1"><stop stop-color="#FFE7AD"/><stop offset="1" stop-color="#D7A04A"/></linearGradient><linearGradient id="mint" x1="0" y1="0" x2=".25" y2="1"><stop stop-color="#B7EACD"/><stop offset="1" stop-color="#4D9E85"/></linearGradient><linearGradient id="violet" x1="0" y1="0" x2=".25" y2="1"><stop stop-color="#DCD2FA"/><stop offset="1" stop-color="#8470C2"/></linearGradient><linearGradient id="cyan" x1="0" y1="0" x2=".25" y2="1"><stop stop-color="#B8EDF1"/><stop offset="1" stop-color="#4AA3BF"/></linearGradient><linearGradient id="wood" x1="0" y1="0" x2=".25" y2="1"><stop stop-color="#9F7754"/><stop offset="1" stop-color="#6C4F3C"/></linearGradient><linearGradient id="metal" x1="0" y1="0" x2=".25" y2="1"><stop stop-color="#DBEAF2"/><stop offset="1" stop-color="#6386A8"/></linearGradient><linearGradient id="ink" x1="0" y1="0" x2=".25" y2="1"><stop stop-color="#62788E"/><stop offset="1" stop-color="#20364F"/></linearGradient><linearGradient id="ivory" x1="0" y1="0" x2=".25" y2="1"><stop stop-color="#FFF8E7"/><stop offset="1" stop-color="#C9D8E6"/></linearGradient></defs><ellipse cx="60" cy="104" rx="43" ry="6" fill="#050F21" opacity="0.28"/><g transform="translate(10 9) scale(1) rotate(0 50 50)"><rect x="8" y="11" width="84" height="82" rx="11" fill="#516884" stroke="none" stroke-width="2"/><rect x="8" y="8" width="84" height="82" rx="11" fill="url(#paper)" stroke="#516884" stroke-width="2"/><path d="M15 13H85" fill="none" stroke="#FFFFFF" stroke-width="2" stroke-linecap="round" stroke-linejoin="round" opacity="0.5"/><rect x="14" y="17" width="23" height="23" rx="5" fill="#516884" stroke="none" stroke-width="2"/><rect x="14" y="14" width="23" height="23" rx="5" fill="url(#gold)" stroke="#516884" stroke-width="2"/><path d="M21 19H30" fill="none" stroke="#FFFFFF" stroke-width="2" stroke-linecap="round" stroke-linejoin="round" opacity="0.5"/><g transform="translate(22 17) scale(0.9) rotate(0 50 50)"><path d="M8 0V8" fill="none" stroke="#FFFFFF" stroke-width="2.2" stroke-linecap="round" stroke-linejoin="round" opacity="1"/><path d="M8 8V16" fill="none" stroke="#FFFFFF" stroke-width="2.2" stroke-linecap="round" stroke-linejoin="round" opacity="1"/></g><rect x="40" y="17" width="23" height="23" rx="5" fill="#516884" stroke="none" stroke-width="2"/><rect x="40" y="14" width="23" height="23" rx="5" fill="url(#blue)" stroke="#516884" stroke-width="2"/><path d="M47 19H56" fill="none" stroke="#FFFFFF" stroke-width="2" stroke-linecap="round" stroke-linejoin="round" opacity="0.5"/><g transform="translate(48 17) scale(0.9) rotate(0 50 50)"><path d="M0 0H8" fill="none" stroke="#FFFFFF" stroke-width="2.2" stroke-linecap="round" stroke-linejoin="round" opacity="1"/><path d="M8 0V8" fill="none" stroke="#FFFFFF" stroke-width="2.2" stroke-linecap="round" stroke-linejoin="round" opacity="1"/><path d="M0 16H8" fill="none" stroke="#FFFFFF" stroke-width="2.2" stroke-linecap="round" stroke-linejoin="round" opacity="1"/><path d="M0 8V16" fill="none" stroke="#FFFFFF" stroke-width="2.2" stroke-linecap="round" stroke-linejoin="round" opacity="1"/><path d="M0 8H8" fill="none" stroke="#FFFFFF" stroke-width="2.2" stroke-linecap="round" stroke-linejoin="round" opacity="1"/></g><rect x="66" y="17" width="23" height="23" rx="5" fill="#516884" stroke="none" stroke-width="2"/><rect x="66" y="14" width="23" height="23" rx="5" fill="url(#blue)" stroke="#516884" stroke-width="2"/><path d="M73 19H82" fill="none" stroke="#FFFFFF" stroke-width="2" stroke-linecap="round" stroke-linejoin="round" opacity="0.5"/><g transform="translate(74 17) scale(0.9) rotate(0 50 50)"><path d="M0 0H8" fill="none" stroke="#FFFFFF" stroke-width="2.2" stroke-linecap="round" stroke-linejoin="round" opacity="1"/><path d="M8 0V8" fill="none" stroke="#FFFFFF" stroke-width="2.2" stroke-linecap="round" stroke-linejoin="round" opacity="1"/><path d="M8 8V16" fill="none" stroke="#FFFFFF" stroke-width="2.2" stroke-linecap="round" stroke-linejoin="round" opacity="1"/><path d="M0 16H8" fill="none" stroke="#FFFFFF" stroke-width="2.2" stroke-linecap="round" stroke-linejoin="round" opacity="1"/><path d="M0 8H8" fill="none" stroke="#FFFFFF" stroke-width="2.2" stroke-linecap="round" stroke-linejoin="round" opacity="1"/></g><rect x="14" y="43" width="23" height="23" rx="5" fill="#516884" stroke="none" stroke-width="2"/><rect x="14" y="40" width="23" height="23" rx="5" fill="url(#gold)" stroke="#516884" stroke-width="2"/><path d="M21 45H30" fill="none" stroke="#FFFFFF" stroke-width="2" stroke-linecap="round" stroke-linejoin="round" opacity="0.5"/><g transform="translate(22 43) scale(0.9) rotate(0 50 50)"><path d="M8 0V8" fill="none" stroke="#FFFFFF" stroke-width="2.2" stroke-linecap="round" stroke-linejoin="round" opacity="1"/><path d="M8 8V16" fill="none" stroke="#FFFFFF" stroke-width="2.2" stroke-linecap="round" stroke-linejoin="round" opacity="1"/><path d="M0 0V8" fill="none" stroke="#FFFFFF" stroke-width="2.2" stroke-linecap="round" stroke-linejoin="round" opacity="1"/><path d="M0 8H8" fill="none" stroke="#FFFFFF" stroke-width="2.2" stroke-linecap="round" stroke-linejoin="round" opacity="1"/></g><rect x="40" y="43" width="23" height="23" rx="5" fill="#516884" stroke="none" stroke-width="2"/><rect x="40" y="40" width="23" height="23" rx="5" fill="url(#blue)" stroke="#516884" stroke-width="2"/><path d="M47 45H56" fill="none" stroke="#FFFFFF" stroke-width="2" stroke-linecap="round" stroke-linejoin="round" opacity="0.5"/><g transform="translate(48 43) scale(0.9) rotate(0 50 50)"><path d="M0 0H8" fill="none" stroke="#FFFFFF" stroke-width="2.2" stroke-linecap="round" stroke-linejoin="round" opacity="1"/><path d="M8 8V16" fill="none" stroke="#FFFFFF" stroke-width="2.2" stroke-linecap="round" stroke-linejoin="round" opacity="1"/><path d="M0 16H8" fill="none" stroke="#FFFFFF" stroke-width="2.2" stroke-linecap="round" stroke-linejoin="round" opacity="1"/><path d="M0 0V8" fill="none" stroke="#FFFFFF" stroke-width="2.2" stroke-linecap="round" stroke-linejoin="round" opacity="1"/><path d="M0 8H8" fill="none" stroke="#FFFFFF" stroke-width="2.2" stroke-linecap="round" stroke-linejoin="round" opacity="1"/></g><rect x="66" y="43" width="23" height="23" rx="5" fill="#516884" stroke="none" stroke-width="2"/><rect x="66" y="40" width="23" height="23" rx="5" fill="url(#blue)" stroke="#516884" stroke-width="2"/><path d="M73 45H82" fill="none" stroke="#FFFFFF" stroke-width="2" stroke-linecap="round" stroke-linejoin="round" opacity="0.5"/><g transform="translate(74 43) scale(0.9) rotate(0 50 50)"><path d="M0 0H8" fill="none" stroke="#FFFFFF" stroke-width="2.2" stroke-linecap="round" stroke-linejoin="round" opacity="1"/><path d="M8 8V16" fill="none" stroke="#FFFFFF" stroke-width="2.2" stroke-linecap="round" stroke-linejoin="round" opacity="1"/><path d="M0 16H8" fill="none" stroke="#FFFFFF" stroke-width="2.2" stroke-linecap="round" stroke-linejoin="round" opacity="1"/><path d="M0 8V16" fill="none" stroke="#FFFFFF" stroke-width="2.2" stroke-linecap="round" stroke-linejoin="round" opacity="1"/><path d="M0 0V8" fill="none" stroke="#FFFFFF" stroke-width="2.2" stroke-linecap="round" stroke-linejoin="round" opacity="1"/><path d="M0 8H8" fill="none" stroke="#FFFFFF" stroke-width="2.2" stroke-linecap="round" stroke-linejoin="round" opacity="1"/></g><rect x="14" y="69" width="23" height="23" rx="5" fill="#516884" stroke="none" stroke-width="2"/><rect x="14" y="66" width="23" height="23" rx="5" fill="url(#gold)" stroke="#516884" stroke-width="2"/><path d="M21 71H30" fill="none" stroke="#FFFFFF" stroke-width="2" stroke-linecap="round" stroke-linejoin="round" opacity="0.5"/><g transform="translate(22 69) scale(0.9) rotate(0 50 50)"><path d="M0 0H8" fill="none" stroke="#FFFFFF" stroke-width="2.2" stroke-linecap="round" stroke-linejoin="round" opacity="1"/><path d="M8 0V8" fill="none" stroke="#FFFFFF" stroke-width="2.2" stroke-linecap="round" stroke-linejoin="round" opacity="1"/><path d="M8 8V16" fill="none" stroke="#FFFFFF" stroke-width="2.2" stroke-linecap="round" stroke-linejoin="round" opacity="1"/></g><rect x="40" y="69" width="23" height="23" rx="5" fill="#516884" stroke="none" stroke-width="2"/><rect x="40" y="66" width="23" height="23" rx="5" fill="url(#blue)" stroke="#516884" stroke-width="2"/><path d="M47 71H56" fill="none" stroke="#FFFFFF" stroke-width="2" stroke-linecap="round" stroke-linejoin="round" opacity="0.5"/><g transform="translate(48 69) scale(0.9) rotate(0 50 50)"><path d="M0 0H8" fill="none" stroke="#FFFFFF" stroke-width="2.2" stroke-linecap="round" stroke-linejoin="round" opacity="1"/><path d="M8 0V8" fill="none" stroke="#FFFFFF" stroke-width="2.2" stroke-linecap="round" stroke-linejoin="round" opacity="1"/><path d="M8 8V16" fill="none" stroke="#FFFFFF" stroke-width="2.2" stroke-linecap="round" stroke-linejoin="round" opacity="1"/><path d="M0 16H8" fill="none" stroke="#FFFFFF" stroke-width="2.2" stroke-linecap="round" stroke-linejoin="round" opacity="1"/><path d="M0 8V16" fill="none" stroke="#FFFFFF" stroke-width="2.2" stroke-linecap="round" stroke-linejoin="round" opacity="1"/><path d="M0 0V8" fill="none" stroke="#FFFFFF" stroke-width="2.2" stroke-linecap="round" stroke-linejoin="round" opacity="1"/><path d="M0 8H8" fill="none" stroke="#FFFFFF" stroke-width="2.2" stroke-linecap="round" stroke-linejoin="round" opacity="1"/></g></g></svg>
